<?xml version="1.0" encoding="UTF-8" standalone="no"?>
<svg width="29px" height="34px" viewBox="0 0 29 34" version="1.1" xmlns="http://www.w3.org/2000/svg" xmlns:xlink="http://www.w3.org/1999/xlink" xmlns:sketch="http://www.bohemiancoding.com/sketch/ns">
    <!-- Generator: Sketch Beta 3.3 (11751) - http://www.bohemiancoding.com/sketch -->
    <title></title>
    <desc>Created with Sketch Beta.</desc>
    <defs></defs>
    <g id="landing" stroke="none" stroke-width="1" fill="none" fill-rule="evenodd" sketch:type="MSPage">
        <g id="Desktop" sketch:type="MSArtboardGroup" transform="translate(-171.000000, -878.000000)" fill-opacity="0.200000018" fill="#333333">
            <g id="Available-on--+-" sketch:type="MSLayerGroup" transform="translate(171.000000, 875.000000)">
                <path d="M27.9277199,13.9258103 C25.4080592,15.7082777 24.1482477,17.8538081 24.1482477,20.3624659 C24.1482477,23.3662536 25.7051326,25.6713234 28.8189491,27.2777446 C27.9827298,29.6983794 26.7724306,31.8054003 25.1880152,33.5988705 C23.6035997,35.3923408 22.156742,36.2890625 20.8473987,36.2890625 C20.2312371,36.2890625 19.389529,36.0855122 18.3222492,35.6784054 L17.8106176,35.4803545 C16.7653435,35.0732477 15.841115,34.8696974 15.0379044,34.8696974 C14.2787053,34.8696974 13.4479999,35.0292369 12.5457634,35.3483205 L11.9020978,35.57938 L11.0933898,35.9094649 C10.4552224,36.1625312 9.81156332,36.2890625 9.1623931,36.2890625 C7.63299206,36.2890625 5.94407453,35.0292511 4.09558983,32.5095904 C1.43289163,28.900644 0.1015625,24.9671716 0.1015625,20.7090551 C0.1015625,17.6832617 0.932267866,15.2461592 2.59370352,13.3976745 C4.25513917,11.5491898 6.45568319,10.6249613 9.19540159,10.6249613 C10.2186699,10.6249613 11.1759066,10.8120075 12.0671402,11.1861056 L12.6777973,11.4336693 L13.3214629,11.6977372 C13.8936129,11.9398007 14.3557271,12.0608306 14.7078195,12.0608306 C15.1589378,12.0608306 15.6595615,11.9563048 16.2097058,11.7472499 L17.0514223,11.417165 L17.6785836,11.1861056 C18.6798461,10.8230104 19.7856195,10.6414655 20.9959369,10.6414655 C23.8676899,10.6414655 26.1782611,11.7362362 27.9277199,13.9258103 L27.9277199,13.9258103 Z M21.1279708,3 C21.1609795,3.38510098 21.1774836,3.68217442 21.1774836,3.89122924 C21.1774836,5.79472837 20.4843122,7.46439114 19.0979487,8.90026765 C17.7115852,10.3361442 16.0996867,11.0540716 14.2622049,11.0540716 C14.2071904,10.6249591 14.1796836,10.316883 14.1796836,10.1298339 C14.1796836,8.5124098 14.8233428,6.99403443 16.1106803,5.57466225 C17.3980179,4.15529006 18.8888864,3.3245847 20.5833308,3.08252123 C20.7043625,3.06051546 20.8859074,3.03300866 21.1279708,3 L21.1279708,3 Z" id="" sketch:type="MSShapeGroup"></path>
            </g>
        </g>
    </g>
</svg>