<?xml version="1.0" encoding="UTF-8" standalone="no"?>
<svg width="230px" height="47px" viewBox="0 0 230 47" version="1.1" xmlns="http://www.w3.org/2000/svg" xmlns:xlink="http://www.w3.org/1999/xlink" xmlns:sketch="http://www.bohemiancoding.com/sketch/ns">
    <!-- Generator: Sketch Beta 3.3 (11751) - http://www.bohemiancoding.com/sketch -->
    <title>Soda + Rectangle 176 + 2 days for next air 4</title>
    <desc>Created with Sketch Beta.</desc>
    <defs></defs>
    <g id="landing" stroke="none" stroke-width="1" fill="none" fill-rule="evenodd" sketch:type="MSPage">
        <g id="Desktop" sketch:type="MSArtboardGroup" transform="translate(-173.000000, -186.000000)">
            <g id="Soda-+-Rectangle-176-+-2-days-for-next-air-4" sketch:type="MSLayerGroup" transform="translate(173.000000, 186.000000)">
                <g id="Rectangle-176-+-2-days-for-next-air-4" transform="translate(152.937500, 0.500000)" sketch:type="MSShapeGroup">
                    <rect id="Rectangle-176" fill="#D6AE75" x="0" y="5.68434189e-14" width="77" height="22.3201955" rx="4"></rect>
                    <path d="M8.08949128,15.2389823 L9.08549128,15.2389823 L9.08549128,11.9989823 L11.3414913,11.9989823 C13.0094913,11.9989823 14.1254913,11.0989823 14.1254913,9.43098233 C14.1254913,7.73898233 12.9614913,6.83898233 11.3174913,6.83898233 L8.08949128,6.83898233 L8.08949128,15.2389823 Z M9.08549128,11.0869823 L9.08549128,7.75098233 L11.2574913,7.75098233 C12.2294913,7.75098233 13.1174913,8.21898233 13.1174913,9.43098233 C13.1174913,10.5829823 12.2534913,11.0869823 11.2814913,11.0869823 L9.08549128,11.0869823 Z M15.3254913,13.0189823 C15.3254913,14.6629823 16.2014913,15.4189823 17.5694913,15.4189823 C18.7214913,15.4189823 19.2614913,14.6269823 19.2614913,14.6269823 L19.2854913,14.6269823 L19.2854913,15.2389823 L20.2454913,15.2389823 L20.2454913,8.87898233 L19.2734913,8.87898233 L19.2734913,12.8269823 C19.2734913,13.8829823 18.7454913,14.5069823 17.7854913,14.5069823 C16.7294913,14.5069823 16.3094913,14.0629823 16.3094913,12.8749823 L16.3094913,8.87898233 L15.3254913,8.87898233 L15.3254913,13.0189823 Z M23.2694913,11.1589823 C23.2694913,10.4269823 23.8454913,9.58698233 24.9014913,9.58698233 C26.1734913,9.58698233 26.8334913,10.5109823 26.8334913,12.0589823 C26.8334913,13.6069823 26.1734913,14.5309823 24.9014913,14.5309823 C23.9414913,14.5309823 23.2694913,13.8589823 23.2694913,13.1269823 L23.2694913,11.1589823 Z M22.2854913,15.2389823 L23.1734913,15.2389823 L23.1734913,14.6269823 L23.1974913,14.6269823 C23.4614913,14.9389823 24.1094913,15.4189823 25.0574913,15.4189823 C26.7374913,15.4189823 27.8174913,14.0989823 27.8174913,12.0589823 C27.8174913,10.0189823 26.6414913,8.69898233 25.0574913,8.69898233 C24.2054913,8.69898233 23.6174913,9.10698233 23.2934913,9.49098233 L23.2694913,9.49098233 L23.2694913,6.47898233 L22.2854913,6.47898233 L22.2854913,15.2389823 Z M29.4374913,15.2389823 L30.4334913,15.2389823 L30.4334913,6.47898233 L29.4374913,6.47898233 L29.4374913,15.2389823 Z M32.5454913,15.2389823 L33.5294913,15.2389823 L33.5294913,8.87898233 L32.5454913,8.87898233 L32.5454913,15.2389823 Z M32.4734913,7.59498233 L33.6014913,7.59498233 L33.6014913,6.47898233 L32.4734913,6.47898233 L32.4734913,7.59498233 Z M39.8174913,12.8029823 C39.6974913,13.6429823 39.1454913,14.5309823 38.1254913,14.5309823 C36.9374913,14.5309823 36.1934913,13.6069823 36.1934913,12.0589823 C36.1934913,10.4629823 36.9974913,9.58698233 38.1134913,9.58698233 C39.1454913,9.58698233 39.6254913,10.3789823 39.7934913,11.2189823 L40.7174913,11.0269823 C40.5134913,9.65898233 39.4934913,8.69898233 38.1134913,8.69898233 C36.5174913,8.69898233 35.2214913,9.93498233 35.2214913,12.0589823 C35.2214913,14.1949823 36.4454913,15.4189823 38.1134913,15.4189823 C39.5174913,15.4189823 40.5614913,14.4709823 40.7654913,12.9949823 L39.8174913,12.8029823 Z M45.4454913,15.2389823 L48.4694913,15.2389823 C50.5454913,15.2389823 51.4334913,14.2669823 51.4334913,12.7549823 C51.4334913,11.6149823 50.7494913,10.9429823 50.0774913,10.7269823 L50.0774913,10.6909823 C50.6534913,10.4389823 51.1214913,9.91098233 51.1214913,9.01098233 C51.1214913,7.77498233 50.1854913,6.83898233 48.6734913,6.83898233 L45.4454913,6.83898233 L45.4454913,15.2389823 Z M46.4414913,10.3909823 L46.4414913,7.75098233 L48.4814913,7.75098233 C49.5134913,7.75098233 50.1374913,8.20698233 50.1374913,9.07098233 C50.1374913,9.91098233 49.6214913,10.3909823 48.4934913,10.3909823 L46.4414913,10.3909823 Z M46.4414913,14.3269823 L46.4414913,11.2789823 L48.3614913,11.2789823 C49.7534913,11.2789823 50.4494913,11.6629823 50.4494913,12.7549823 C50.4494913,13.8949823 49.6934913,14.3269823 48.3374913,14.3269823 L46.4414913,14.3269823 Z M57.5174913,13.2829823 C57.2894913,13.7029823 56.9054913,14.5309823 55.6214913,14.5309823 C54.3014913,14.5309823 53.6894913,13.4749823 53.6774913,12.3469823 L58.4534913,12.3469823 L58.4534913,12.0589823 C58.4534913,9.93498233 57.2654913,8.69898233 55.5974913,8.69898233 C53.9174913,8.69898233 52.6934913,9.99498233 52.6934913,12.0589823 C52.6934913,14.1229823 53.9414913,15.4189823 55.6454913,15.4189823 C57.0374913,15.4189823 57.8894913,14.6269823 58.3094913,13.7989823 L57.5174913,13.2829823 Z M53.7014913,11.5669823 C53.7134913,10.7869823 54.2294913,9.58698233 55.5974913,9.58698233 C56.9774913,9.58698233 57.4574913,10.6429823 57.4814913,11.5669823 L53.7014913,11.5669823 Z M60.3014913,13.3909823 C60.3014913,14.5789823 60.7694913,15.2389823 62.0054913,15.2389823 L62.5334913,15.2389823 L62.5334913,14.2909823 L62.0534913,14.2909823 C61.4054913,14.2909823 61.2734913,13.9789823 61.2734913,13.2709823 L61.2734913,9.75498233 L62.8334913,9.75498233 L62.8334913,8.87898233 L61.2614913,8.87898233 L61.2614913,7.31898233 L60.3254913,7.31898233 L60.3254913,8.87898233 L59.4134913,8.87898233 L59.4134913,9.75498233 L60.3014913,9.75498233 L60.3014913,13.3909823 Z M67.9694913,15.2389823 L68.8334913,15.2389823 L68.8334913,10.9549823 C68.8334913,9.33498233 67.8374913,8.69898233 66.4454913,8.69898233 C65.0654913,8.69898233 64.2374913,9.51498233 64.0454913,10.5829823 L64.9334913,10.8349823 C65.0894913,10.1269823 65.4854913,9.57498233 66.4814913,9.57498233 C67.4414913,9.57498233 67.8134913,10.0189823 67.8134913,10.5229823 C67.8134913,11.1469823 67.1294913,11.3269823 65.9894913,11.6149823 C64.4414913,12.0109823 63.8534913,12.5509823 63.8534913,13.6069823 C63.8534913,14.5789823 64.5134913,15.4189823 66.0014913,15.4189823 C67.1414913,15.4189823 67.7654913,14.8549823 67.9454913,14.5429823 L67.9694913,14.5429823 L67.9694913,15.2389823 Z M66.2174913,12.3709823 C67.5254913,12.0109823 67.7654913,11.7949823 67.8494913,11.6149823 L67.8734913,11.6149823 L67.8734913,13.1989823 C67.8734913,13.9069823 67.2854913,14.5429823 66.0734913,14.5429823 C65.1254913,14.5429823 64.8134913,14.1229823 64.8134913,13.5469823 C64.8134913,13.0189823 65.0774913,12.6829823 66.2174913,12.3709823 L66.2174913,12.3709823 Z" id="Public-Beta" fill="#FFFFFF"></path>
                </g>
                <path d="M0.52,31.132 C1.843,41.653 8.143,46.945 18.223,46.945 C28.24,46.945 34.162,41.086 34.162,33.652 C34.162,27.163 31.39,23.824 20.743,20.233 C11.041,16.957 9.592,15.949 9.592,13.114 C9.592,10.216 11.797,7.885 16.774,7.885 C22.381,7.885 24.523,10.909 25.594,14.815 L32.839,13.051 C31.39,4.672 24.586,0.955 16.774,0.955 C7.45,0.955 2.284,6.814 2.284,13.177 C2.284,18.91 5.749,22.942 15.199,25.903 C25.342,29.053 26.854,30.502 26.854,34.093 C26.854,37.747 23.704,40.078 18.286,40.078 C11.545,40.078 9.403,36.487 8.332,29.431 L0.52,31.132 Z M54.07,40.456 C49.156,40.456 45.691,36.739 45.691,29.305 C45.691,21.934 49.219,18.154 54.07,18.154 C58.921,18.154 62.386,22.06 62.386,29.305 C62.386,36.55 58.921,40.456 54.07,40.456 L54.07,40.456 Z M54.07,46.945 C62.701,46.945 69.442,40.708 69.442,29.305 C69.442,17.902 62.26,11.665 54.07,11.665 C45.817,11.665 38.572,17.902 38.572,29.305 C38.572,40.708 45.376,46.945 54.07,46.945 L54.07,46.945 Z M97.729,33.211 C97.729,37.054 94.831,40.456 90.106,40.456 C84.751,40.456 81.664,36.613 81.664,29.305 C81.664,21.997 84.751,18.154 90.106,18.154 C95.02,18.154 97.729,21.808 97.729,25.651 L97.729,33.211 Z M98.233,46 L104.911,46 L104.911,0.01 L97.729,0.01 L97.729,15.823 L97.603,15.823 C97.036,15.13 94.39,11.665 88.909,11.665 C81.412,11.665 74.482,18.091 74.482,29.305 C74.482,40.015 80.152,46.945 88.972,46.945 C94.705,46.945 97.666,43.354 98.107,42.787 L98.233,42.787 L98.233,46 Z M133.513,46 L139.624,46 L139.624,24.391 C139.624,15.193 133.576,11.665 126.142,11.665 C118.393,11.665 114.109,16.075 112.786,21.367 L118.897,23.698 C119.716,20.737 121.228,17.839 126.331,17.839 C130.615,17.839 132.442,19.666 132.442,21.808 C132.442,24.202 130.741,24.958 123.496,26.785 C115.432,28.738 112.156,31.321 112.156,37.18 C112.156,42.22 115.621,46.945 123.937,46.945 C130.426,46.945 133.072,43.165 133.387,42.661 L133.513,42.661 L133.513,46 Z M124.945,31.888 C131.56,30.124 132.19,29.242 132.568,28.423 L132.694,28.423 L132.694,35.101 C132.694,37.936 130.3,40.708 124.567,40.708 C120.976,40.708 119.086,39.385 119.086,36.676 C119.086,34.849 119.842,33.148 124.945,31.888 L124.945,31.888 Z" id="Soda" fill-opacity="0.696303216" fill="#000000" sketch:type="MSShapeGroup"></path>
            </g>
        </g>
    </g>
</svg>