<?xml version="1.0" encoding="UTF-8" standalone="no"?>
<svg width="37px" height="30px" viewBox="0 0 37 30" version="1.1" xmlns="http://www.w3.org/2000/svg" xmlns:xlink="http://www.w3.org/1999/xlink" xmlns:sketch="http://www.bohemiancoding.com/sketch/ns">
    <!-- Generator: Sketch Beta 3.3 (11751) - http://www.bohemiancoding.com/sketch -->
    <title>path5</title>
    <desc>Created with Sketch Beta.</desc>
    <defs></defs>
    <g id="landing" stroke="none" stroke-width="1" fill="none" fill-rule="evenodd" sketch:type="MSPage">
        <g id="Desktop" sketch:type="MSArtboardGroup" transform="translate(-984.000000, -881.000000)" fill-opacity="0.2" fill="#000000">
            <g id="Twitter_bird_logo_2012" sketch:type="MSLayerGroup" transform="translate(984.000000, 881.000000)">
                <g id="layer1" transform="translate(0.145320, 0.147374)" sketch:type="MSShapeGroup">
                    <path d="M36.7488983,3.57578511 C35.3994249,4.17131064 33.9488987,4.57361915 32.4268449,4.75461277 C33.980445,3.82811489 35.1738404,2.36101277 35.7356009,0.612751064 C34.2814068,1.47082553 32.6709529,2.09371915 30.9566959,2.42943404 C29.5841135,0.97437234 27.6283149,0.0653914894 25.4638042,0.0653914894 C21.307915,0.0653914894 17.9382694,3.41723191 17.9382694,7.55161489 C17.9382694,8.13838298 18.0048438,8.70982553 18.1332252,9.25773191 C11.8788479,8.94555532 6.33387173,5.96500426 2.62218145,1.43561277 C1.97440555,2.5412766 1.60319931,3.82720426 1.60319931,5.19925106 C1.60319931,7.79664894 2.93176451,10.0880745 4.95101919,11.4305617 C3.71745844,11.3917 2.55707428,11.0548915 1.54249364,10.4942149 C1.54163815,10.5254128 1.54163815,10.5567936 1.54163815,10.5883596 C1.54163815,14.2155234 4.13567821,17.2411383 7.57831647,17.9293511 C6.94686335,18.1004915 6.2820311,18.1919 5.59573884,18.1919 C5.11082497,18.1919 4.63948347,18.1448277 4.17987717,18.0576149 C5.13760185,21.0317787 7.91669324,23.196217 11.2098601,23.2564255 C8.63434566,25.2645021 5.38959751,26.4613936 1.86369214,26.4613936 C1.25626335,26.4613936 0.657273988,26.4258149 0.068552659,26.3566638 C3.39895046,28.4809638 7.35456486,29.720366 11.6043571,29.720366 C25.4462581,29.720366 33.0158101,18.3128681 33.0158101,8.41954255 C33.0158101,8.09495957 33.0084742,7.7722 32.9939865,7.45090213 C34.4641355,6.39559362 35.7398805,5.07718723 36.7487764,3.57578511 L36.7488983,3.57578511 Z" id="path5"></path>
                </g>
            </g>
        </g>
    </g>
</svg>